<?xml version="1.0" standalone="no"?>
<!DOCTYPE svg PUBLIC "-//W3C//DTD SVG 20010904//EN"
 "http://www.w3.org/TR/2001/REC-SVG-20010904/DTD/svg10.dtd">
<svg version="1.0" xmlns="http://www.w3.org/2000/svg"
 width="395.000000pt" height="387.000000pt" viewBox="0 0 395.000000 387.000000"
 preserveAspectRatio="xMidYMid meet">

<g transform="translate(0.000000,387.000000) scale(0.100000,-0.100000)"
fill="#000000" stroke="none">
<path d="M1052 908 c-7 -7 -12 -20 -12 -29 0 -10 -4 -21 -10 -24 -5 -3 -10
-20 -10 -36 0 -26 -3 -29 -20 -24 -15 5 -20 2 -20 -12 0 -10 4 -24 9 -32 7
-10 15 -2 31 35 12 27 31 66 41 86 19 37 13 58 -9 36z"/>
<path d="M1288 913 c8 -3 12 -26 12 -64 0 -57 1 -58 18 -41 10 9 14 19 10 20
-13 6 -9 80 5 85 6 3 -4 5 -23 5 -19 0 -29 -2 -22 -5z"/>
<path d="M2028 913 c6 -2 18 -2 25 0 6 3 1 5 -13 5 -14 0 -19 -2 -12 -5z"/>
<path d="M2340 918 c-1 -2 -2 -34 -4 -73 -1 -38 -6 -77 -10 -86 -8 -19 11 -36
24 -23 4 5 10 48 12 97 3 68 1 87 -9 87 -7 0 -13 -1 -13 -2z"/>
<path d="M2743 900 c-1 -11 -10 -33 -20 -48 -10 -15 -23 -36 -29 -46 -24 -44
-33 -32 -51 72 -3 18 -11 32 -19 32 -12 0 -12 -6 1 -36 8 -20 15 -49 15 -65 0
-36 27 -64 46 -48 11 9 84 144 84 155 0 2 -6 4 -13 4 -7 0 -13 -9 -14 -20z"/>
<path d="M2960 911 c0 -5 10 -11 21 -14 23 -6 23 -28 0 -119 -8 -33 -7 -38 9
-38 13 0 16 6 12 25 -2 14 1 31 7 39 6 7 8 27 5 45 -5 23 -2 37 11 51 18 20
17 20 -23 20 -23 0 -42 -4 -42 -9z"/>
<path d="M824 888 c4 -13 9 -34 12 -48 11 -59 21 -85 34 -85 12 0 38 37 53 78
10 27 -11 20 -25 -10 -22 -46 -35 -38 -42 27 -5 45 -11 60 -23 60 -11 0 -14
-6 -9 -22z"/>
<path d="M2081 894 c27 -32 31 -79 9 -105 -23 -25 -27 -47 -6 -30 23 19 46 76
40 99 -4 11 -18 29 -33 38 -25 17 -26 17 -10 -2z"/>
<path d="M2261 896 c-12 -15 -5 -46 11 -46 5 0 7 9 3 19 -4 14 1 22 22 29 l28
10 -26 1 c-15 1 -32 -5 -38 -13z"/>
<path d="M747 879 c-3 -12 0 -22 9 -26 20 -7 32 6 15 16 -7 5 -10 14 -7 20 4
6 3 11 -2 11 -5 0 -12 -9 -15 -21z"/>
<path d="M929 878 c-10 -18 -9 -20 5 -15 17 7 36 -20 29 -40 -3 -7 0 -13 6
-13 14 0 14 33 -1 65 -14 31 -24 32 -39 3z"/>
<path d="M2903 885 c-3 -9 -3 -18 -1 -21 3 -3 8 4 11 16 6 23 -1 27 -10 5z"/>
<path d="M1731 867 c-1 -21 5 -30 24 -37 26 -10 50 -52 34 -58 -11 -5 -12 -22
-1 -22 5 0 14 11 20 25 11 23 9 29 -14 50 -15 14 -33 25 -40 25 -7 0 -15 10
-17 23 -4 19 -4 18 -6 -6z"/>
<path d="M1200 871 c0 -6 5 -13 10 -16 6 -3 10 1 10 9 0 9 -4 16 -10 16 -5 0
-10 -4 -10 -9z"/>
<path d="M1950 851 c-15 -29 -12 -56 10 -82 10 -13 19 -19 20 -13 0 5 -5 15
-11 21 -6 6 -10 30 -7 52 4 46 3 49 -12 22z"/>
<path d="M3056 831 c-4 -7 -5 -15 -2 -18 9 -9 19 4 14 18 -4 11 -6 11 -12 0z"/>
<path d="M1360 820 c0 -5 5 -10 10 -10 6 0 10 5 10 10 0 6 -4 10 -10 10 -5 0
-10 -4 -10 -10z"/>
<path d="M1282 760 c-10 -17 -7 -19 33 -26 48 -7 75 -1 75 16 0 6 -5 8 -12 3
-18 -11 -61 -4 -74 12 -8 11 -12 10 -22 -5z"/>
<path d="M1706 755 c4 -8 11 -15 18 -16 6 0 19 -2 29 -4 9 -2 17 1 17 6 0 5
-11 9 -25 9 -14 0 -25 5 -25 10 0 6 -4 10 -10 10 -5 0 -7 -7 -4 -15z"/>
<path d="M2405 754 c-18 -14 -18 -14 2 -14 23 0 39 15 26 23 -5 3 -17 -1 -28
-9z"/>
<path d="M2025 751 l-30 -7 27 -5 c18 -4 29 -1 32 7 3 8 4 13 3 13 -1 -1 -15
-4 -32 -8z"/>
<path d="M3060 751 c-8 -6 -18 -7 -22 -5 -4 3 -8 0 -8 -5 0 -16 26 -13 40 4
14 17 11 19 -10 6z"/>
</g>
</svg>
